<svg width="30" height="30" viewBox="4 0 30 30" fill="none" xmlns="http://www.w3.org/2000/svg">
<g clip-path="url(#clip0_236_9338)" filter="url(#filter0_d_236_9338)">
<path d="M19.4999 0C11.2157 0 4.5 6.71584 4.5 14.9999C4.5 21.3547 8.45361 26.7872 14.0336 28.9728C13.9024 27.786 13.7839 25.9608 14.0857 24.6651C14.3582 23.4945 15.8446 17.2092 15.8446 17.2092C15.8446 17.2092 15.3958 16.3107 15.3958 14.9821C15.3958 12.8964 16.6047 11.3393 18.11 11.3393C19.3897 11.3393 20.0079 12.3002 20.0079 13.4522C20.0079 14.7393 19.1886 16.6634 18.7656 18.4465C18.4123 19.9396 19.5144 21.1571 20.9868 21.1571C23.653 21.1571 25.7023 18.346 25.7023 14.2882C25.7023 10.6968 23.1215 8.18572 19.4367 8.18572C15.1687 8.18572 12.6635 11.3869 12.6635 14.6952C12.6635 15.9845 13.16 17.3668 13.7798 18.1183C13.9022 18.2668 13.9203 18.3971 13.8838 18.5486C13.7699 19.0224 13.5169 20.0412 13.4672 20.2496C13.4017 20.5242 13.2497 20.5825 12.9656 20.4503C11.0921 19.5782 9.92086 16.8393 9.92086 14.6393C9.92086 9.90756 13.3587 5.56225 19.8319 5.56225C25.0354 5.56225 29.0792 9.27 29.0792 14.2253C29.0792 19.395 25.8197 23.5553 21.2955 23.5553C19.7756 23.5553 18.3466 22.7657 17.8576 21.833C17.8576 21.833 17.1053 24.697 16.923 25.3988C16.5842 26.7018 15.6701 28.3349 15.0587 29.331C16.4623 29.7656 17.9537 29.9999 19.4999 29.9999C27.7844 29.9999 34.5001 23.2844 34.5001 14.9999C34.5001 6.71584 27.7844 0 19.4999 0V0Z" fill="white"/>
</g>
<defs>
<filter id="filter0_d_236_9338" x="0.5" y="0" width="38" height="38" filterUnits="userSpaceOnUse" color-interpolation-filters="sRGB">
<feFlood flood-opacity="0" result="BackgroundImageFix"/>
<feColorMatrix in="SourceAlpha" type="matrix" values="0 0 0 0 0 0 0 0 0 0 0 0 0 0 0 0 0 0 127 0" result="hardAlpha"/>
<feOffset dy="4"/>
<feGaussianBlur stdDeviation="2"/>
<feComposite in2="hardAlpha" operator="out"/>
<feColorMatrix type="matrix" values="0 0 0 0 0 0 0 0 0 0 0 0 0 0 0 0 0 0 0.25 0"/>
<feBlend mode="normal" in2="BackgroundImageFix" result="effect1_dropShadow_236_9338"/>
<feBlend mode="normal" in="SourceGraphic" in2="effect1_dropShadow_236_9338" result="shape"/>
</filter>
<clipPath id="clip0_236_9338">
<rect width="30" height="30" fill="white" transform="translate(4.5)"/>
</clipPath>
</defs>
</svg>
